<svg xmlns="http://www.w3.org/2000/svg" viewBox="0 0 100 120" fill="none" stroke="#000" stroke-width="1.5" stroke-linecap="round" stroke-linejoin="round">
<path d="M30.0 118.0 L29.9 114.6 L29.9 111.3 L30.0 108.0 L30.1 104.8 L30.3 101.5 L30.6 98.4 L31.0 95.2 L31.4 92.1 L31.8 89.0 L32.4 86.0 L33.0 83.0 L33.7 80.0 L34.4 77.1 L35.3 74.2 L36.2 71.4 L37.1 68.6 L38.1 65.8 L39.2 63.0 L40.4 60.3 L41.6 57.7 L42.9 55.0 L44.3 52.4 L45.7 49.9 L47.2 47.4 L48.8 44.9 L50.4 42.4 L52.2 40.0 L53.9 37.7 L55.8 35.3 L57.7 33.0 L59.7 30.8 L61.7 28.5 L63.8 26.4 L66.0 24.2 L68.3 22.1 L70.6 20.0 L73.0 18.0 L75.5 16.0 L78.0 14.0"/><path d="M30.0 108.9 Q21.9 99.6 7.6 96.3 Q17.9 106.8 30.0 108.9Z"/><path d="M30.2 103.1 Q42.1 102.1 52.9 92.8 Q38.8 94.8 30.2 103.1Z"/><path d="M30.7 97.3 Q23.9 88.1 10.8 83.9 Q19.6 94.5 30.7 97.3Z"/><path d="M31.4 91.7 Q42.5 91.7 53.2 83.9 Q40.0 84.7 31.4 91.7Z"/><path d="M32.3 86.2 Q26.8 77.2 15.0 72.3 Q22.3 82.7 32.3 86.2Z"/><path d="M33.5 80.9 Q43.7 81.7 54.2 75.4 Q41.9 75.1 33.5 80.9Z"/><path d="M34.9 75.6 Q30.5 66.8 20.1 61.4 Q25.9 71.6 34.9 75.6Z"/><path d="M36.5 70.5 Q45.7 72.1 55.8 67.2 Q44.7 65.9 36.5 70.5Z"/><path d="M38.3 65.5 Q35.0 57.1 26.0 51.2 Q30.5 61.0 38.3 65.5Z"/><path d="M40.3 60.6 Q48.5 62.8 58.2 59.3 Q48.1 57.1 40.3 60.6Z"/><path d="M42.5 55.8 Q40.3 48.0 32.7 41.9 Q35.9 51.1 42.5 55.8Z"/><path d="M45.0 51.1 Q52.2 53.9 61.2 51.5 Q52.4 48.7 45.0 51.1Z"/><path d="M47.7 46.6 Q46.4 39.4 40.1 33.3 Q42.1 41.8 47.7 46.6Z"/><path d="M50.6 42.2 Q56.8 45.2 65.0 43.9 Q57.4 40.7 50.6 42.2Z"/><path d="M53.8 37.9 Q53.2 31.4 48.1 25.5 Q49.2 33.2 53.8 37.9Z"/><path d="M57.1 33.7 Q62.3 36.9 69.6 36.4 Q63.2 32.9 57.1 33.7Z"/><path d="M60.7 29.6 Q60.7 24.0 56.8 18.4 Q57.1 25.2 60.7 29.6Z"/><path d="M64.5 25.7 Q68.7 28.9 75.0 29.0 Q69.8 25.5 64.5 25.7Z"/><path d="M68.5 21.9 Q69.0 17.1 66.0 12.0 Q65.8 17.9 68.5 21.9Z"/><path d="M78.0 14.0 q6 -4 9 0 q2 4 -2 6 q-3 1 -3 -2"/>
</svg>
